<?xml version="1.0" encoding="UTF-8"?>
<svg width="84px" height="50px" viewBox="0 0 84 50" version="1.1" xmlns="http://www.w3.org/2000/svg" xmlns:xlink="http://www.w3.org/1999/xlink">
    <!-- Generator: Sketch 49 (51002) - http://www.bohemiancoding.com/sketch -->
    <title>Page 1</title>
    <desc>Created with Sketch.</desc>
    <defs>
        <polygon id="path-1" points="0.0003 0.9647 83.059 0.9647 83.059 51 0.0003 51"></polygon>
    </defs>
    <g id="Home" stroke="none" stroke-width="1" fill="none" fill-rule="evenodd">
        <g transform="translate(-918.000000, -1365.000000)" id="Page-1">
            <g transform="translate(918.000000, 1364.000000)">
                <g id="Group-3" transform="translate(0.000000, 0.035600)">
                    <mask id="mask-2" fill="white">
                        <use xlink:href="#path-1"></use>
                    </mask>
                    <g id="Clip-2"></g>
                    <path d="M13.7983,25.3377 C7.2563,25.3377 1.9333,30.6597 1.9333,37.2017 C1.9333,43.7437 7.2563,49.0667 13.7983,49.0667 L67.3693,49.0667 C74.9553,49.0667 81.1253,42.8957 81.1253,35.3107 C81.1253,27.9387 75.3613,21.9027 68.0003,21.5707 C67.5093,21.5477 67.1123,21.1607 67.0793,20.6707 C66.4003,10.7047 58.0353,2.8987 48.0383,2.8987 C39.3593,2.8987 31.7643,8.7557 29.5693,17.1427 C29.4923,17.4387 29.2793,17.6807 28.9963,17.7947 C28.7133,17.9087 28.3913,17.8827 28.1303,17.7227 C26.9023,16.9717 25.5003,16.5747 24.0753,16.5747 C19.7763,16.5747 16.2783,20.0717 16.2783,24.3707 C16.2813,24.3837 16.2833,24.4217 16.2843,24.4597 C16.2863,24.7367 16.1703,25.0027 15.9633,25.1887 C15.7563,25.3737 15.4823,25.4627 15.2043,25.4287 C14.6853,25.3677 14.2263,25.3377 13.7983,25.3377 M67.3693,51.0007 L13.7983,51.0007 C6.1903,51.0007 0.0003,44.8097 0.0003,37.2017 C0.0003,29.5937 6.1903,23.4037 13.7983,23.4037 C13.9913,23.4037 14.1883,23.4097 14.3913,23.4197 C14.8713,18.4987 19.0313,14.6407 24.0753,14.6407 C25.4423,14.6407 26.7923,14.9327 28.0383,15.4927 C30.8283,6.8797 38.8853,0.9647 48.0383,0.9647 C58.7663,0.9647 67.7853,9.1277 68.9353,19.6997 C76.9213,20.4857 83.0593,27.1867 83.0593,35.3107 C83.0593,43.9627 76.0213,51.0007 67.3693,51.0007" id="Fill-1" fill="#00ADDA" mask="url(#mask-2)"></path>
                </g>
                <path d="M50.0971,8.1452 C50.2011,7.7102 50.6411,7.4642 51.0671,7.5742 C51.4931,7.6842 51.7501,8.1112 51.6401,8.5372 C51.5281,8.9702 51.1031,9.2202 50.6691,9.1082 C50.2441,8.9982 49.9841,8.5782 50.0971,8.1452" id="Fill-4" fill="#00ADDA"></path>
                <path d="M53.685,9.3357 C53.887,8.9367 54.372,8.7977 54.76,9.0027 C55.149,9.2087 55.302,9.6837 55.096,10.0727 C54.887,10.4677 54.415,10.6127 54.021,10.4047 C53.631,10.1987 53.476,9.7307 53.685,9.3357" id="Fill-6" fill="#00ADDA"></path>
                <path d="M56.9223,11.3381 C57.2113,10.9971 57.7143,10.9731 58.0453,11.2631 C58.3753,11.5531 58.4143,12.0501 58.1253,12.3801 C57.8303,12.7171 57.3383,12.7501 57.0023,12.4551 C56.6713,12.1661 56.6273,11.6741 56.9223,11.3381" id="Fill-8" fill="#00ADDA"></path>
                <path d="M59.6078,14.0261 C59.9668,13.7601 60.4618,13.8531 60.7178,14.2101 C60.9738,14.5681 60.8978,15.0601 60.5408,15.3161 C60.1768,15.5761 59.6908,15.4951 59.4298,15.1321 C59.1738,14.7751 59.2448,14.2871 59.6078,14.0261" id="Fill-10" fill="#00ADDA"></path>
                <path d="M61.6078,17.2654 C62.0188,17.0894 62.4788,17.2944 62.6448,17.7024 C62.8108,18.1094 62.6228,18.5704 62.2148,18.7364 C61.8008,18.9054 61.3458,18.7144 61.1768,18.3004 C61.0118,17.8934 61.1928,17.4344 61.6078,17.2654" id="Fill-12" fill="#00ADDA"></path>
                <path d="M62.7983,20.8767 C63.2373,20.7997 63.6383,21.1057 63.7063,21.5407 C63.7733,21.9747 63.4833,22.3807 63.0493,22.4477 C62.6073,22.5167 62.2093,22.2247 62.1413,21.7827 C62.0733,21.3497 62.3563,20.9447 62.7983,20.8767" id="Fill-14" fill="#00ADDA"></path>
                <path d="M31.372,37.1394 L31.171,35.2164 L54.412,32.7914 L41.599,20.3724 L42.945,18.9844 L57.245,32.8444 C57.514,33.1054 57.608,33.4994 57.486,33.8544 C57.363,34.2084 57.045,34.4604 56.672,34.4994 L31.372,37.1394 Z" id="Fill-16" fill="#00ADDA"></path>
                <path d="M36.1967,36.1335 C36.1967,38.7325 34.0907,40.8385 31.4917,40.8385 C28.8937,40.8385 26.7867,38.7325 26.7867,36.1335 C26.7867,33.5345 28.8937,31.4285 31.4917,31.4285 C34.0907,31.4285 36.1967,33.5345 36.1967,36.1335" id="Fill-18" fill="#FFFFFF"></path>
                <path d="M31.4916,32.3952 C29.4306,32.3952 27.7536,34.0722 27.7536,36.1332 C27.7536,38.1952 29.4306,39.8722 31.4916,39.8722 C33.5536,39.8722 35.2296,38.1952 35.2296,36.1332 C35.2296,34.0722 33.5536,32.3952 31.4916,32.3952 M31.4916,41.8052 C28.3646,41.8052 25.8196,39.2602 25.8196,36.1332 C25.8196,33.0062 28.3646,30.4612 31.4916,30.4612 C34.6196,30.4612 37.1636,33.0062 37.1636,36.1332 C37.1636,39.2602 34.6196,41.8052 31.4916,41.8052" id="Fill-20" fill="#003555"></path>
                <path d="M47.1967,19.4138 C47.1967,22.0128 45.0907,24.1188 42.4917,24.1188 C39.8937,24.1188 37.7867,22.0128 37.7867,19.4138 C37.7867,16.8148 39.8937,14.7088 42.4917,14.7088 C45.0907,14.7088 47.1967,16.8148 47.1967,19.4138" id="Fill-22" fill="#FFFFFF"></path>
                <path d="M42.4916,15.6755 C40.4306,15.6755 38.7536,17.3525 38.7536,19.4135 C38.7536,21.4745 40.4306,23.1525 42.4916,23.1525 C44.5536,23.1525 46.2296,21.4745 46.2296,19.4135 C46.2296,17.3525 44.5536,15.6755 42.4916,15.6755 M42.4916,25.0855 C39.3646,25.0855 36.8196,22.5415 36.8196,19.4135 C36.8196,16.2855 39.3646,13.7415 42.4916,13.7415 C45.6196,13.7415 48.1636,16.2855 48.1636,19.4135 C48.1636,22.5415 45.6196,25.0855 42.4916,25.0855" id="Fill-24" fill="#003555"></path>
                <path d="M60.1772,33.2331 C60.1772,35.8321 58.0712,37.9381 55.4722,37.9381 C52.8732,37.9381 50.7672,35.8321 50.7672,33.2331 C50.7672,30.6341 52.8732,28.5281 55.4722,28.5281 C58.0712,28.5281 60.1772,30.6341 60.1772,33.2331" id="Fill-26" fill="#FFFFFF"></path>
                <path d="M55.4711,29.4948 C53.4101,29.4948 51.7331,31.1718 51.7331,33.2328 C51.7331,35.2938 53.4101,36.9718 55.4711,36.9718 C57.5331,36.9718 59.2091,35.2938 59.2091,33.2328 C59.2091,31.1718 57.5331,29.4948 55.4711,29.4948 M55.4711,38.9048 C52.3441,38.9048 49.7991,36.3598 49.7991,33.2328 C49.7991,30.1048 52.3441,27.5608 55.4711,27.5608 C58.5991,27.5608 61.1431,30.1048 61.1431,33.2328 C61.1431,36.3598 58.5991,38.9048 55.4711,38.9048" id="Fill-28" fill="#003555"></path>
            </g>
        </g>
    </g>
</svg>